<?xml version="1.0" encoding="utf-8"?>
<!-- Generator: Adobe Illustrator 16.0.0, SVG Export Plug-In . SVG Version: 6.00 Build 0)  -->
<!DOCTYPE svg PUBLIC "-//W3C//DTD SVG 1.1//EN" "http://www.w3.org/Graphics/SVG/1.1/DTD/svg11.dtd">
<svg version="1.1" id="Layer_1" xmlns="http://www.w3.org/2000/svg" xmlns:xlink="http://www.w3.org/1999/xlink" x="0px" y="0px"
	 width="500px" height="500px" viewBox="0 0 500 500" enable-background="new 0 0 500 500" xml:space="preserve">
<g id="main">
	<a>
		<path id="youtube" fill="#00F20D" d="M293.02,446.521c0-5.724-0.063-11.438,0.028-17.146c0.05-2.834-0.866-4.287-3.96-4.265
			c-11.701,0.086-23.406,0.062-35.109,0.021c-2.541-0.009-3.73,1.021-3.729,3.632c0.042,11.839,0.042,23.687,0,35.521
			c-0.009,2.604,1.189,3.639,3.73,3.631c11.703-0.041,23.399-0.064,35.104,0.021c3.1,0.022,4.014-1.434,3.958-4.266
			C292.948,457.952,293.02,452.235,293.02,446.521z"/>
		<path id="youtube-icon" fill="#FFFFFF" d="M285.4,453.441c-2.135-0.146-6.896-0.146-9.024,0c-2.31,0.153-2.581,1.554-2.599,5.226
			c0.018,3.665,0.287,5.065,2.599,5.225c2.133,0.146,6.89,0.146,9.024,0c2.311-0.153,2.582-1.554,2.6-5.225
			C287.982,455.001,287.713,453.601,285.4,453.441z M279.109,461.037v-4.741l4.742,2.366L279.109,461.037z"/>
	</a>
	<a>
		<path id="twitter" fill="#00F20D" d="M338.667,400.948c0,5.579-0.088,11.159,0.035,16.729c0.062,3.071-1.021,4.46-4.248,4.438
			c-11.429-0.104-22.859-0.086-34.289-0.017c-2.967,0.021-4.133-1.188-4.112-4.14c0.074-11.43,0.092-22.854-0.011-34.289
			c-0.028-3.253,1.411-4.247,4.456-4.225c11.292,0.091,22.587,0.098,33.879-0.004c3.161-0.024,4.398,1.217,4.327,4.354
			C338.576,389.518,338.668,395.232,338.667,400.948z"/>
		<path id="twitter-icon" fill="#FFFFFF" d="M327.061,418.582c3.717,0,5.744-3.078,5.744-5.745c0-0.087,0-0.175-0.006-0.261
			c0.396-0.286,0.736-0.644,1.007-1.043c-0.369,0.161-0.759,0.27-1.155,0.314c0.42-0.253,0.733-0.647,0.888-1.116
			c-0.396,0.234-0.83,0.399-1.282,0.488c-0.764-0.812-2.043-0.852-2.855-0.088c-0.523,0.494-0.746,1.229-0.585,1.933
			c-1.622-0.081-3.137-0.851-4.159-2.111c-0.536,0.924-0.266,2.104,0.626,2.696c-0.322-0.013-0.64-0.1-0.918-0.253
			c0,0.008,0,0.016,0,0.021c0,0.962,0.679,1.789,1.618,1.979c-0.299,0.081-0.607,0.095-0.91,0.036
			c0.266,0.819,1.021,1.385,1.887,1.401c-0.715,0.562-1.598,0.865-2.506,0.864c-0.162,0-0.322-0.01-0.481-0.028
			C324.891,418.27,325.963,418.583,327.061,418.582"/>
	</a>
	<a>
		<path id="soundcloud" fill="#00F20D" d="M271.218,422.141c-5.571,0-11.145-0.062-16.715,0.029
			c-2.839,0.051-4.275-0.895-4.254-3.97c0.083-11.688,0.061-23.373,0.022-35.062c-0.009-2.55,1.043-3.729,3.641-3.726
			c11.822,0.039,23.646,0.04,35.469,0.001c2.611-0.01,3.629,1.21,3.62,3.736c-0.038,11.688-0.062,23.377,0.021,35.062
			c0.022,3.1-1.453,3.994-4.271,3.948C282.906,422.074,277.062,422.141,271.218,422.141z"/>
		<path id="soundcloud-icon" fill="#FFFFFF" d="M278.21,418.583h-0.608v-4.905c0.188-0.14,0.389-0.261,0.608-0.346V418.583z
			 M280.034,418.583h0.608v-5.608c-0.141,0.161-0.271,0.334-0.379,0.521l-0.229-0.111V418.583z M278.816,418.583h0.609v-5.38
			c-0.31-0.05-0.38-0.03-0.609-0.009V418.583z M276.385,418.583h0.609v-4.269c-0.189,0.277-0.337,0.588-0.42,0.934l-0.186-0.114
			v3.446L276.385,418.583L276.385,418.583z M274.562,415.392c-0.369,0.332-0.608,0.821-0.608,1.378c0,0.555,0.239,1.048,0.608,1.379
			V415.392z M286.039,414.982c-0.124-1.728-1.459-3.088-3.107-3.088c-0.619,0-1.193,0.199-1.682,0.533v6.154h5.525
			c0.977,0,1.77-0.848,1.77-1.889C288.545,415.336,287.227,414.4,286.039,414.982z M275.777,414.967
			c-0.186-0.015-0.318-0.017-0.608,0.074v3.462c0.272,0.084,0.386,0.083,0.608,0.083V414.967z"/>
	</a>
	<a>
		<path id="facebook" fill="#00F20D" d="M362.829,376.408c-5.573,0.001-11.149-0.092-16.72,0.037c-3.081,0.07-4.438-1.03-4.4-4.252
			c0.105-11.416,0.104-22.836,0-34.254c-0.028-3.176,1.233-4.324,4.355-4.297c11.417,0.101,22.835,0.086,34.253,0.01
			c2.896-0.021,4.207,1.021,4.187,4.039c-0.079,11.554-0.078,23.104,0.002,34.66c0.021,2.979-1.209,4.14-4.144,4.084
			C374.52,376.331,368.673,376.404,362.829,376.408z"/>
		<path id="facebook-icon" fill="#FFFFFF" d="M378.892,366.218h-1.021c-0.326,0-0.571,0.136-0.571,0.474v0.588h1.592l-0.127,1.596
			h-1.466v4.248h-1.592v-4.248h-1.062v-1.596h1.062v-1.02c0-1.074,0.562-1.634,1.838-1.634h1.347V366.218L378.892,366.218z"/>
	</a>
	<a>
		<path id="blog" fill="#00F20D" d="M338.745,355.443c-0.002,5.574-0.104,11.152,0.037,16.726c0.081,3.194-1.258,4.312-4.368,4.284
			c-11.422-0.1-22.844-0.086-34.266-0.008c-2.91,0.019-4.193-1.049-4.174-4.055c0.073-11.562,0.072-23.117,0-34.681
			c-0.021-2.985,1.229-4.093,4.147-4.065c11.421,0.078,22.846,0.106,34.266-0.021c3.486-0.04,4.479,1.482,4.396,4.688
			C338.642,344.02,338.747,349.732,338.745,355.443z"/>
		<path id="insta-icon" fill="#FFFFFF" d="M329.013,364.396c1.278,0,1.432,0.004,1.938,0.027c1.3,0.061,1.906,0.678,1.967,1.967
			c0.022,0.506,0.026,0.657,0.026,1.938c0,1.279-0.004,1.431-0.026,1.938c-0.062,1.287-0.666,1.905-1.967,1.965
			c-0.506,0.021-0.656,0.027-1.938,0.027c-1.278,0-1.431-0.006-1.938-0.027c-1.302-0.061-1.906-0.68-1.966-1.965
			c-0.024-0.507-0.028-0.658-0.028-1.938c0-1.28,0.004-1.432,0.028-1.938c0.06-1.289,0.666-1.906,1.966-1.967
			C327.58,364.4,327.733,364.396,329.013,364.396z M329.013,363.533c-1.301,0-1.465,0.005-1.978,0.029
			c-1.74,0.078-2.706,1.045-2.787,2.787c-0.024,0.512-0.029,0.676-0.029,1.978s0.005,1.464,0.029,1.976
			c0.08,1.742,1.045,2.708,2.787,2.788c0.514,0.024,0.677,0.029,1.978,0.029c1.303,0,1.465-0.005,1.978-0.029
			c1.738-0.08,2.709-1.045,2.788-2.788c0.022-0.513,0.027-0.674,0.027-1.976s-0.005-1.466-0.027-1.978
			c-0.079-1.74-1.045-2.707-2.788-2.787C330.477,363.538,330.314,363.533,329.013,363.533z M329.013,365.866
			c-1.359,0-2.462,1.103-2.462,2.463c0,1.358,1.103,2.461,2.462,2.461s2.462-1.101,2.462-2.461S330.372,365.866,329.013,365.866z
			 M329.013,369.926c-0.882,0-1.599-0.716-1.599-1.598c0-0.881,0.716-1.6,1.599-1.6c0.882,0,1.6,0.715,1.6,1.6
			C330.61,369.21,329.895,369.926,329.013,369.926z M331.572,365.193c-0.318,0-0.576,0.258-0.576,0.574
			c0,0.318,0.258,0.575,0.576,0.575c0.315,0,0.572-0.257,0.572-0.575C332.146,365.451,331.889,365.193,331.572,365.193z"/>
	</a>
	<a>
		<path id="behance" fill="#00F20D" d="M292.979,355.25c-0.002,5.58-0.092,11.16,0.033,16.736c0.068,3.059-0.984,4.467-4.229,4.438
			c-11.432-0.105-22.86-0.105-34.29,0c-3.248,0.029-4.256-1.383-4.231-4.438c0.093-11.295,0.118-22.59-0.012-33.883
			c-0.039-3.444,1.41-4.479,4.648-4.444c11.158,0.112,22.314,0.144,33.479-0.013c3.646-0.051,4.762,1.438,4.65,4.867
			C292.854,344.087,292.979,349.671,292.979,355.25z"/>
		<path id="behance-icon" fill="#FFFFFF" d="M279.016,364.708c0.396,0,0.752,0.034,1.08,0.104c0.321,0.066,0.6,0.184,0.831,0.342
			c0.231,0.156,0.411,0.365,0.539,0.63c0.127,0.258,0.188,0.583,0.188,0.969c0,0.416-0.094,0.763-0.282,1.039
			c-0.188,0.278-0.47,0.506-0.843,0.683c0.509,0.146,0.885,0.403,1.135,0.771c0.25,0.365,0.374,0.811,0.374,1.322
			c0,0.418-0.081,0.777-0.241,1.084c-0.16,0.309-0.383,0.556-0.652,0.748c-0.271,0.19-0.586,0.336-0.938,0.429
			c-0.35,0.093-0.709,0.142-1.079,0.142h-4.001v-8.257h3.893v-0.004L279.016,364.708L279.016,364.708z M278.781,368.044
			c0.32,0,0.588-0.077,0.8-0.231c0.21-0.147,0.312-0.4,0.312-0.75c0-0.188-0.033-0.352-0.102-0.476
			c-0.07-0.122-0.164-0.218-0.281-0.285c-0.117-0.071-0.248-0.118-0.4-0.146c-0.146-0.029-0.307-0.041-0.467-0.041h-1.699v1.93
			L278.781,368.044L278.781,368.044z M278.882,371.557c0.181,0,0.351-0.016,0.511-0.051c0.162-0.035,0.311-0.091,0.43-0.175
			c0.119-0.08,0.224-0.188,0.296-0.328c0.071-0.14,0.106-0.317,0.106-0.536c0-0.425-0.119-0.729-0.354-0.912
			c-0.239-0.182-0.56-0.271-0.949-0.271h-1.978v2.272H278.882L278.882,371.557z M284.627,371.529
			c0.247,0.242,0.602,0.361,1.062,0.361c0.332,0,0.617-0.082,0.854-0.25c0.239-0.166,0.385-0.35,0.438-0.529h1.445
			c-0.23,0.719-0.584,1.229-1.062,1.543c-0.478,0.311-1.058,0.466-1.731,0.466c-0.47,0-0.894-0.077-1.271-0.228
			c-0.381-0.149-0.697-0.365-0.965-0.646c-0.264-0.278-0.463-0.605-0.607-0.995c-0.145-0.385-0.214-0.812-0.214-1.272
			c0-0.446,0.075-0.862,0.22-1.248c0.148-0.391,0.354-0.726,0.625-1.002c0.271-0.283,0.594-0.506,0.969-0.668
			s0.789-0.242,1.248-0.242c0.506,0,0.948,0.098,1.327,0.295c0.379,0.195,0.688,0.46,0.933,0.791
			c0.244,0.33,0.416,0.711,0.524,1.136c0.108,0.423,0.146,0.866,0.116,1.33h-4.314C284.223,370.843,284.381,371.29,284.627,371.529z
			 M286.514,368.389c-0.193-0.216-0.521-0.332-0.928-0.332c-0.263,0-0.48,0.045-0.652,0.135c-0.17,0.091-0.311,0.199-0.416,0.33
			c-0.104,0.133-0.18,0.271-0.221,0.42c-0.042,0.146-0.066,0.277-0.074,0.396h2.672C286.854,368.917,286.71,368.607,286.514,368.389
			z M283.886,365.264h3.347v0.814h-3.347V365.264z"/>
	</a>
	<path id="about" fill="#00F20D" d="M378.533,5.24c0.673-0.855,2.3-1.417,3.42-1.317c0.866,0.077,1.854,1.269,2.354,2.2
		c0.406,0.757,0.208,1.861,0.208,2.812c-0.001,78.257-0.023,156.516,0.044,234.772c0.013,3.821-1.07,5.278-5.065,5.266
		c-41.373-0.119-82.746-0.125-124.12-0.046c-3.652,0.006-5.051-1.101-5.045-4.895c0.088-48.724,0.251-97.448-0.116-146.169
		c-0.072-9.501,0.729-17.564,9.603-23.125L378.533,5.24z"/>
	<text transform="matrix(1 0 0 1 264.0127 239.291)" font-family="'Neutraface2Text-Light'" font-size="16">about</text>
	<path id="work" fill="#00F20D" d="M247.323,489.883c0,1.463-0.141,2.927-0.291,5.826c-4.047-3.169-7.095-5.556-10.14-7.943
		c-19.886-15.598-39.799-31.164-59.65-46.806c-13.658-10.763-27.21-21.662-40.863-32.431c-2.539-2.002-3.736-4.244-3.731-7.61
		c0.099-59.317,0.082-118.635,0.107-177.951c0.003-5.397,0.143-5.512,5.474-5.514c34.546-0.013,69.093-0.017,103.64-0.015
		c5.231,0.001,5.517,0.513,5.383,5.546L247.323,489.883z"/>
	<text id="work_1_" transform="matrix(1 0 0 1 203.042 239.291)" font-family="'Neutraface2Text-Light'" font-size="16">work</text>
	<path id="blog_2_" fill="#00F20D" d="M155.681,213.902c-28.708,0-57.415,0.001-86.123,0c-5.327,0-5.502-0.148-5.505-5.49
		c-0.013-30.75-0.016-61.499-0.01-92.249c0.001-5.316,0.157-5.48,5.529-5.482c57.417-0.019,114.834-0.028,172.252-0.028
		c5.344,0,5.492,0.15,5.493,5.512c0.009,30.75,0.005,61.499-0.009,92.247c-0.003,5.351-0.159,5.507-5.502,5.51
		c-28.709,0.013-57.417,0.005-86.125,0.005C155.681,213.92,155.681,213.912,155.681,213.902z"/>
	<text id="blog_1_" transform="matrix(1 0 0 1 81.042 137.291)" font-family="'Neutraface2Text-Light'" font-size="16">blog</text>
	<path id="music" fill="#00F20D" d="M256.307,330.646c-5.912,0-5.966-0.07-5.974-5.869c-0.007-6.123-0.038-12.245,0.006-18.367
		l-0.023-17.579c0.013-10.339,0.161-20.681,0.017-31.019c-0.052-3.715,1.272-4.987,4.991-4.982
		c56.325,0.068,112.646,0.033,168.978,0.021c2.585,0,5.171,0.058,7.754-0.037c2.808-0.104,3.932,1.199,3.871,3.933l0.047,69.373
		c0.041,3.362-1.234,4.612-4.562,4.522L256.307,330.646z"/>
	<text id="music_1_" transform="matrix(1 0 0 1 264.0127 318.7275)" font-family="'Neutraface2Text-Light'" font-size="16">music</text>
</g>
</svg>
